<svg width="33" height="30" viewBox="0 0 33 30" fill="none" xmlns="http://www.w3.org/2000/svg">
<path fill-rule="evenodd" clip-rule="evenodd" d="M12.8337 30H20.1663C25.316 30 27.8916 30 29.7412 28.775C30.5393 28.2466 31.2267 27.5648 31.7641 26.7683C33 24.935 33 22.38 33 17.2734C33 12.165 33 9.61172 31.7641 7.77839C31.2267 6.98191 30.5394 6.30006 29.7412 5.77173C28.5532 4.9834 27.0649 4.70173 24.7863 4.60173C23.6989 4.60173 22.7634 3.78507 22.5505 2.72674C22.3879 1.95152 21.9652 1.2568 21.354 0.759994C20.7429 0.263186 19.9806 -0.00524134 19.1961 7.75512e-05H13.8039C12.1737 7.75512e-05 10.7696 1.14174 10.4495 2.72674C10.2366 3.78507 9.30105 4.60173 8.2137 4.60173C5.9367 4.70173 4.4484 4.98506 3.25875 5.77173C2.46117 6.30017 1.77437 6.98202 1.2375 7.77839C0 9.61172 0 12.165 0 17.2734C0 22.38 9.83477e-08 24.9333 1.23585 26.7683C1.77045 27.5617 2.45685 28.2433 3.25875 28.775C5.1084 30 7.68405 30 12.8337 30ZM16.5 10.4551C12.7034 10.4551 9.62445 13.5067 9.62445 17.2717C9.62445 21.0384 12.7034 24.0917 16.5 24.0917C20.2966 24.0917 23.3755 21.0384 23.3755 17.2734C23.3755 13.5067 20.2966 10.4551 16.5 10.4551ZM16.5 13.1817C14.223 13.1817 12.375 15.0134 12.375 17.2734C12.375 19.5317 14.223 21.3634 16.5 21.3634C18.777 21.3634 20.625 19.5317 20.625 17.2734C20.625 15.0134 18.777 13.1817 16.5 13.1817ZM24.2913 11.8184C24.2913 11.065 24.9067 10.4551 25.6674 10.4551H27.4989C28.2579 10.4551 28.875 11.065 28.875 11.8184C28.8715 12.1832 28.7248 12.5317 28.4671 12.7873C28.2094 13.043 27.8617 13.1848 27.5005 13.1817H25.6674C25.4884 13.1835 25.3108 13.1496 25.1448 13.082C24.9788 13.0145 24.8276 12.9145 24.6998 12.7879C24.572 12.6613 24.4702 12.5106 24.4001 12.3442C24.33 12.1778 24.293 11.9992 24.2913 11.8184Z" fill="black"/>
</svg>
