<svg width="45" height="41" viewBox="0 0 45 41" fill="none" xmlns="http://www.w3.org/2000/svg">
<path d="M28.7807 13.5742H5.49313C3.56393 13.5742 2 15.1265 2 17.0414V35.5329C2 37.4477 3.56393 39 5.49313 39H28.7807C30.7099 39 32.2738 37.4477 32.2738 35.5329V17.0414C32.2738 15.1265 30.7099 13.5742 28.7807 13.5742Z" stroke="white" stroke-width="3.125" stroke-linejoin="round"/>
<path d="M31.409 34.3662C33.2055 35.0643 35.2319 34.1847 35.9352 32.4016L42.7266 15.1826C43.4299 13.3995 42.5437 11.3881 40.7472 10.6901L19.0622 2.26392C17.2658 1.56588 15.2393 2.44548 14.5361 4.22857L10.9424 13.944" stroke="white" stroke-width="3.125" stroke-linejoin="round"/>
<path d="M22.9588 22.8199C24.2449 22.8199 25.2875 21.785 25.2875 20.5085C25.2875 19.2319 24.2449 18.197 22.9588 18.197C21.6726 18.197 20.63 19.2319 20.63 20.5085C20.63 21.785 21.6726 22.8199 22.9588 22.8199Z" stroke="white" stroke-width="3.125" stroke-miterlimit="10"/>
<path d="M31.8081 14.8715C32.4598 15.1247 32.8755 15.49 33.1194 14.8715C33.3633 14.253 33.0328 13.5464 32.3811 13.2931C31.7294 13.0399 31.0033 13.336 30.7594 13.9545C31.4977 14.3139 31.8081 14.2102 31.8081 14.8715Z" stroke="white" stroke-width="3.125" stroke-miterlimit="10"/>
<path d="M20.63 32.0505L14.0324 25.5142C13.6126 25.0976 13.0483 24.8559 12.4549 24.8384C11.8615 24.821 11.2838 25.0291 10.8398 25.4203L2 33.2214M14.8081 39L23.784 30.0909C24.1945 29.6826 24.744 29.4414 25.3244 29.4147C25.9049 29.388 26.4745 29.5776 26.9213 29.9464L32.2738 34.3771" stroke="white" stroke-width="3.125" stroke-linecap="round" stroke-linejoin="round"/>
<path d="M33.0028 25.2628L36.3597 31.3254" stroke="white" stroke-width="3.125" stroke-linecap="round" stroke-linejoin="round"/>
</svg>
