<svg width="39" height="31" viewBox="0 0 39 31" fill="none" xmlns="http://www.w3.org/2000/svg">
<path d="M12.3334 3.09998H37M12.3334 15.4938H27.75M12.3334 27.9H37" stroke="white" stroke-width="2.38095" stroke-linecap="round" stroke-linejoin="round"/>
<path fill-rule="evenodd" clip-rule="evenodd" d="M3.08025 6.2C4.62192 6.2 6.16358 4.65 6.16358 3.1C6.16358 1.55 4.62192 0 3.08025 0C1.53858 0 0 1.55 0 3.1C0 4.65 1.53858 6.2 3.08025 6.2ZM3.08025 18.6C4.62192 18.6 6.16358 17.05 6.16358 15.5C6.16358 13.95 4.62192 12.4 3.08025 12.4C1.53858 12.4 0 13.95 0 15.5C0 17.05 1.53858 18.6 3.08025 18.6ZM3.08025 31C4.62192 31 6.16358 29.45 6.16358 27.9C6.16358 26.35 4.62192 24.8 3.08025 24.8C1.53858 24.8 0 26.35 0 27.9C0 29.45 1.53858 31 3.08025 31Z" fill="white"/>
</svg>
