<svg width="34" height="36" viewBox="0 0 34 36" fill="none" xmlns="http://www.w3.org/2000/svg">
<path d="M18.7175 2.67225C17.7538 1.77592 16.2462 1.77592 15.2825 2.67225L3.1737 13.9342C2.4245 14.631 2 15.6005 2 16.6147V30.3111C2 32.3483 3.67893 34 5.75 34H9.5C11.5711 34 13.25 32.3483 13.25 30.3111V24.1629C13.25 23.4838 13.8097 22.9333 14.5 22.9333H19.5C20.1903 22.9333 20.75 23.4838 20.75 24.1629V30.3111C20.75 32.3483 22.429 34 24.5 34H28.25C30.321 34 32 32.3483 32 30.3111V16.6147C32 15.6005 31.5755 14.631 30.8263 13.9342L18.7175 2.67225Z" stroke="white" stroke-width="3"/>
</svg>
